# xmcd
#
# Track frame offsets:
#	150
#	13540
#	27922
#	63375
#	79007
#	92062
#	110460
#	121530
#	156275
#	183617
#	193890
# Disc length: 2731 seconds
# Revision: 6
# Processed by: cddbd v1.5.1PL0 Copyright (c) Steve Scherf et al.
#
# Submitted via: libkcddb 0.10
#
DISCID=870aa90b
DTITLE=Various Artist - The Original Jazz Masters Series - Vol.3 Disk 3
DYEAR=1993
DGENRE=Jazz
TTITLE0=Nat King Cole - On the Sunny Side Of The Street
TTITLE1=Woody Herman - Lullabye of Birdland
TTITLE2=Lionel Hampton - They Say That Love Is Wonderful
TTITLE3=Louis Bellson - Prelude
TTITLE4=Miles Davis - Embraceable You
TTITLE5=Wayne Shorter - Devil's Island
TTITLE6=Eddie Harris - Green Dolphin Street
TTITLE7=Thelonious Monk - I Mean You
TTITLE8=Cannonball Adderley - I Got Rhythm
TTITLE9=Louis Armstrong - Way Down Yonder In New Orleans
TTITLE10=Peggy Lee - Why Don't You Do Right
EXTD=YEAR: 1993
EXTT0=
EXTT1=
EXTT2=
EXTT3=
EXTT4=
EXTT5=
EXTT6=
EXTT7=
EXTT8=
EXTT9=
EXTT10=
PLAYORDER=
